<?xml version="1.0" encoding="UTF-8"?>
<svg xmlns="http://www.w3.org/2000/svg" xmlns:xlink="http://www.w3.org/1999/xlink" width="500" height="500" viewBox="0 0 500 500">
<defs>
<clipPath id="clip-0-fc986d9f">
<path clip-rule="nonzero" d="M 39 43 L 333 43 L 333 457 L 39 457 Z M 39 43 "/>
</clipPath>
<clipPath id="clip-1-fc986d9f">
<path clip-rule="nonzero" d="M 98 16 L 451 16 L 451 484 L 98 484 Z M 98 16 "/>
</clipPath>
<clipPath id="clip-2-fc986d9f">
<path clip-rule="nonzero" d="M 181 16 L 461 16 L 461 484 L 181 484 Z M 181 16 "/>
</clipPath>
</defs>
<path fill="none" stroke-width="50" stroke-linecap="round" stroke-linejoin="miter" stroke="rgb(58.399999%, 34.5%, 69.800001%)" stroke-opacity="1" stroke-miterlimit="2" d="M 74.167969 250 Z M 74.167969 250 "/>
<g clip-path="url(#clip-0-fc986d9f)">
<path fill="none" stroke-width="50" stroke-linecap="round" stroke-linejoin="miter" stroke="rgb(25.099999%, 38.800001%, 84.7%)" stroke-opacity="1" stroke-miterlimit="2" d="M 157.054688 315 L 157.417969 314.714844 L 157.777344 314.429688 L 158.132812 314.144531 L 158.84375 313.566406 L 159.195312 313.277344 L 159.898438 312.691406 L 160.246094 312.398438 L 160.59375 312.101562 L 161.28125 311.507812 L 161.621094 311.210938 L 162.300781 310.609375 L 162.636719 310.308594 L 162.96875 310.003906 L 163.304688 309.699219 L 163.632812 309.394531 L 163.964844 309.085938 L 164.292969 308.78125 L 164.617188 308.472656 L 165.265625 307.847656 L 165.585938 307.539062 L 165.90625 307.222656 L 166.222656 306.910156 L 166.539062 306.59375 L 167.164062 305.960938 L 167.476562 305.640625 L 167.785156 305.320312 L 168.089844 305 L 168.398438 304.679688 L 169.300781 303.707031 L 169.597656 303.378906 L 169.894531 303.054688 L 170.191406 302.726562 L 170.480469 302.394531 L 170.773438 302.066406 L 171.0625 301.734375 L 171.632812 301.070312 L 171.917969 300.734375 L 172.199219 300.402344 L 172.476562 300.066406 L 172.753906 299.726562 L 173.03125 299.390625 L 173.578125 298.710938 L 173.847656 298.371094 L 174.113281 298.03125 L 174.382812 297.6875 L 175.167969 296.65625 L 175.683594 295.960938 L 176.191406 295.265625 L 176.441406 294.914062 L 176.691406 294.566406 L 177.183594 293.863281 L 177.425781 293.507812 L 177.667969 293.15625 L 178.144531 292.445312 L 178.613281 291.734375 L 179.074219 291.015625 L 179.300781 290.65625 L 179.523438 290.296875 L 179.75 289.9375 L 180.40625 288.847656 L 180.835938 288.121094 L 181.046875 287.753906 L 181.253906 287.390625 L 181.667969 286.65625 L 181.871094 286.285156 L 182.070312 285.917969 L 182.269531 285.546875 L 182.464844 285.179688 L 182.660156 284.808594 L 182.851562 284.433594 L 183.042969 284.0625 L 183.230469 283.691406 L 183.417969 283.316406 L 183.785156 282.566406 L 184.144531 281.816406 L 184.320312 281.441406 L 184.835938 280.304688 L 185.003906 279.925781 L 185.332031 279.167969 L 185.492188 278.789062 L 185.652344 278.40625 L 185.964844 277.640625 L 186.117188 277.257812 L 186.5625 276.109375 L 186.707031 275.722656 L 186.847656 275.335938 L 186.988281 274.953125 L 187.261719 274.179688 L 187.394531 273.792969 L 187.527344 273.402344 L 187.65625 273.015625 L 187.78125 272.628906 L 188.03125 271.847656 L 188.148438 271.460938 L 188.269531 271.070312 L 188.382812 270.679688 L 188.5 270.289062 L 188.609375 269.894531 L 188.828125 269.113281 L 188.933594 268.71875 L 189.035156 268.328125 L 189.136719 267.933594 L 189.332031 267.144531 L 189.519531 266.355469 L 189.609375 265.960938 L 189.78125 265.171875 L 189.863281 264.777344 L 189.945312 264.378906 L 190.023438 263.984375 L 190.101562 263.585938 L 190.175781 263.191406 L 190.25 262.792969 L 190.316406 262.394531 L 190.386719 262 L 190.453125 261.601562 L 190.578125 260.804688 L 190.636719 260.40625 L 190.800781 259.210938 L 190.847656 258.808594 L 190.898438 258.410156 L 190.984375 257.613281 L 191.027344 257.210938 L 191.066406 256.8125 L 191.101562 256.414062 L 191.136719 256.011719 L 191.171875 255.613281 L 191.199219 255.210938 L 191.226562 254.8125 L 191.253906 254.410156 L 191.277344 254.007812 L 191.296875 253.609375 L 191.316406 253.207031 L 191.335938 252.808594 L 191.359375 252.003906 L 191.371094 251.605469 L 191.378906 251.203125 L 191.382812 250.800781 L 191.386719 250.402344 L 191.390625 250 L 191.386719 249.597656 L 191.382812 249.199219 L 191.378906 248.796875 L 191.371094 248.394531 L 191.359375 247.996094 L 191.335938 247.191406 L 191.316406 246.792969 L 191.296875 246.390625 L 191.277344 245.992188 L 191.253906 245.589844 L 191.226562 245.1875 L 191.199219 244.789062 L 191.171875 244.386719 L 191.136719 243.988281 L 191.101562 243.585938 L 191.066406 243.1875 L 191.027344 242.789062 L 190.984375 242.386719 L 190.898438 241.589844 L 190.847656 241.191406 L 190.800781 240.789062 L 190.636719 239.59375 L 190.578125 239.195312 L 190.453125 238.398438 L 190.386719 238 L 190.316406 237.605469 L 190.25 237.207031 L 190.175781 236.808594 L 190.101562 236.414062 L 190.023438 236.015625 L 189.945312 235.621094 L 189.863281 235.222656 L 189.78125 234.828125 L 189.609375 234.039062 L 189.519531 233.644531 L 189.332031 232.855469 L 189.136719 232.066406 L 189.035156 231.671875 L 188.933594 231.28125 L 188.828125 230.886719 L 188.609375 230.105469 L 188.5 229.710938 L 188.382812 229.320312 L 188.269531 228.929688 L 188.148438 228.539062 L 188.03125 228.152344 L 187.78125 227.371094 L 187.65625 226.984375 L 187.527344 226.597656 L 187.394531 226.207031 L 187.261719 225.820312 L 186.988281 225.046875 L 186.847656 224.664062 L 186.707031 224.277344 L 186.5625 223.890625 L 186.117188 222.742188 L 185.964844 222.359375 L 185.652344 221.59375 L 185.492188 221.210938 L 185.332031 220.832031 L 185.003906 220.074219 L 184.835938 219.695312 L 184.320312 218.558594 L 184.144531 218.183594 L 183.785156 217.433594 L 183.417969 216.683594 L 183.230469 216.308594 L 183.042969 215.9375 L 182.851562 215.566406 L 182.660156 215.191406 L 182.464844 214.820312 L 182.269531 214.453125 L 182.070312 214.082031 L 181.871094 213.714844 L 181.667969 213.34375 L 181.253906 212.609375 L 181.046875 212.246094 L 180.835938 211.878906 L 180.40625 211.152344 L 179.75 210.0625 L 179.523438 209.703125 L 179.300781 209.34375 L 179.074219 208.984375 L 178.613281 208.265625 L 178.144531 207.554688 L 177.667969 206.84375 L 177.425781 206.492188 L 177.183594 206.136719 L 176.691406 205.433594 L 176.441406 205.085938 L 176.191406 204.734375 L 175.683594 204.039062 L 175.167969 203.34375 L 174.382812 202.3125 L 174.113281 201.96875 L 173.847656 201.628906 L 173.578125 201.289062 L 173.03125 200.609375 L 172.753906 200.273438 L 172.476562 199.933594 L 172.199219 199.597656 L 171.917969 199.265625 L 171.632812 198.929688 L 171.0625 198.265625 L 170.773438 197.933594 L 170.480469 197.605469 L 170.191406 197.273438 L 169.894531 196.945312 L 169.597656 196.621094 L 169.300781 196.292969 L 168.398438 195.320312 L 168.089844 195 L 167.785156 194.679688 L 167.476562 194.359375 L 167.164062 194.039062 L 166.539062 193.40625 L 166.222656 193.089844 L 165.90625 192.777344 L 165.585938 192.460938 L 165.265625 192.152344 L 164.617188 191.527344 L 164.292969 191.21875 L 163.964844 190.914062 L 163.632812 190.605469 L 163.304688 190.300781 L 162.96875 189.996094 L 162.636719 189.691406 L 162.300781 189.390625 L 161.621094 188.789062 L 161.28125 188.492188 L 160.59375 187.898438 L 160.246094 187.601562 L 159.898438 187.308594 L 159.195312 186.722656 L 158.84375 186.433594 L 158.132812 185.855469 L 157.777344 185.570312 L 157.417969 185.285156 L 157.054688 185 "/>
</g>
<g clip-path="url(#clip-1-fc986d9f)">
<path fill="none" stroke-width="50" stroke-linecap="round" stroke-linejoin="miter" stroke="rgb(22%, 59.600002%, 14.9%)" stroke-opacity="1" stroke-miterlimit="2" d="M 239.945312 380 L 242.101562 378.289062 L 242.8125 377.710938 L 243.519531 377.132812 L 244.226562 376.550781 L 244.929688 375.96875 L 245.628906 375.382812 L 246.324219 374.796875 L 247.015625 374.207031 L 247.707031 373.613281 L 248.394531 373.019531 L 249.074219 372.421875 L 249.753906 371.820312 L 250.429688 371.21875 L 251.105469 370.613281 L 251.773438 370.007812 L 252.441406 369.398438 L 253.101562 368.789062 L 253.761719 368.175781 L 254.417969 367.558594 L 255.070312 366.941406 L 255.71875 366.320312 L 256.363281 365.699219 L 257.007812 365.074219 L 257.644531 364.449219 L 258.28125 363.820312 L 259.539062 362.554688 L 260.164062 361.917969 L 260.785156 361.28125 L 261.402344 360.640625 L 262.015625 360 L 263.234375 358.710938 L 264.4375 357.414062 L 265.03125 356.761719 L 265.625 356.105469 L 266.796875 354.792969 L 267.378906 354.132812 L 267.957031 353.46875 L 268.53125 352.804688 L 269.101562 352.140625 L 269.667969 351.472656 L 270.230469 350.800781 L 270.789062 350.128906 L 271.34375 349.457031 L 271.894531 348.78125 L 272.441406 348.105469 L 272.988281 347.425781 L 273.527344 346.742188 L 274.597656 345.375 L 275.125 344.6875 L 275.648438 344 L 276.171875 343.308594 L 277.203125 341.925781 L 277.710938 341.226562 L 278.214844 340.53125 L 278.71875 339.832031 L 279.214844 339.132812 L 279.710938 338.429688 L 280.199219 337.722656 L 280.6875 337.019531 L 281.167969 336.3125 L 281.648438 335.601562 L 282.59375 334.179688 L 283.058594 333.464844 L 283.519531 332.75 L 283.980469 332.03125 L 284.433594 331.3125 L 284.882812 330.59375 L 285.332031 329.871094 L 285.773438 329.148438 L 286.210938 328.421875 L 286.644531 327.699219 L 287.074219 326.96875 L 287.503906 326.242188 L 287.925781 325.507812 L 288.34375 324.777344 L 288.757812 324.042969 L 289.167969 323.308594 L 289.570312 322.574219 L 289.972656 321.835938 L 290.371094 321.097656 L 290.765625 320.355469 L 291.15625 319.613281 L 291.539062 318.871094 L 291.921875 318.125 L 292.671875 316.632812 L 293.039062 315.886719 L 293.765625 314.386719 L 294.121094 313.632812 L 294.472656 312.878906 L 294.820312 312.125 L 295.164062 311.371094 L 295.503906 310.613281 L 295.839844 309.855469 L 296.167969 309.097656 L 296.496094 308.335938 L 296.820312 307.574219 L 297.136719 306.8125 L 297.449219 306.046875 L 297.761719 305.285156 L 298.066406 304.519531 L 298.367188 303.75 L 298.664062 302.984375 L 298.957031 302.214844 L 299.246094 301.445312 L 299.527344 300.675781 L 299.808594 299.902344 L 300.085938 299.132812 L 300.355469 298.359375 L 300.621094 297.582031 L 300.886719 296.808594 L 301.144531 296.03125 L 301.398438 295.253906 L 301.648438 294.476562 L 301.890625 293.699219 L 302.132812 292.917969 L 302.371094 292.136719 L 302.832031 290.574219 L 303.054688 289.792969 L 303.273438 289.007812 L 303.488281 288.222656 L 303.699219 287.4375 L 303.90625 286.652344 L 304.105469 285.867188 L 304.304688 285.078125 L 304.496094 284.292969 L 304.871094 282.714844 L 305.050781 281.925781 L 305.226562 281.132812 L 305.394531 280.34375 L 305.5625 279.550781 L 305.726562 278.761719 L 305.882812 277.96875 L 306.035156 277.175781 L 306.183594 276.378906 L 306.328125 275.585938 L 306.46875 274.792969 L 306.605469 273.996094 L 306.738281 273.203125 L 306.863281 272.40625 L 307.105469 270.8125 L 307.21875 270.015625 L 307.328125 269.21875 L 307.429688 268.417969 L 307.53125 267.621094 L 307.628906 266.824219 L 307.71875 266.023438 L 307.804688 265.222656 L 307.886719 264.425781 L 307.964844 263.625 L 308.039062 262.824219 L 308.109375 262.023438 L 308.234375 260.421875 L 308.289062 259.621094 L 308.339844 258.820312 L 308.386719 258.019531 L 308.429688 257.21875 L 308.46875 256.417969 L 308.5 255.613281 L 308.53125 254.8125 L 308.554688 254.011719 L 308.574219 253.207031 L 308.589844 252.40625 L 308.601562 251.605469 L 308.609375 250.800781 L 308.609375 249.199219 L 308.601562 248.394531 L 308.589844 247.59375 L 308.574219 246.792969 L 308.554688 245.988281 L 308.53125 245.1875 L 308.5 244.386719 L 308.46875 243.582031 L 308.429688 242.78125 L 308.386719 241.980469 L 308.339844 241.179688 L 308.289062 240.378906 L 308.234375 239.578125 L 308.109375 237.976562 L 308.039062 237.175781 L 307.964844 236.375 L 307.886719 235.574219 L 307.804688 234.777344 L 307.71875 233.976562 L 307.628906 233.175781 L 307.53125 232.378906 L 307.429688 231.582031 L 307.328125 230.78125 L 307.21875 229.984375 L 307.105469 229.1875 L 306.863281 227.59375 L 306.738281 226.796875 L 306.605469 226.003906 L 306.46875 225.207031 L 306.328125 224.414062 L 306.183594 223.621094 L 306.035156 222.824219 L 305.882812 222.03125 L 305.726562 221.238281 L 305.5625 220.449219 L 305.394531 219.65625 L 305.226562 218.867188 L 305.050781 218.074219 L 304.871094 217.285156 L 304.496094 215.707031 L 304.304688 214.921875 L 304.105469 214.132812 L 303.90625 213.347656 L 303.699219 212.5625 L 303.488281 211.777344 L 303.273438 210.992188 L 303.054688 210.207031 L 302.832031 209.425781 L 302.371094 207.863281 L 302.132812 207.082031 L 301.890625 206.300781 L 301.648438 205.523438 L 301.398438 204.746094 L 301.144531 203.96875 L 300.886719 203.191406 L 300.621094 202.417969 L 300.355469 201.640625 L 300.085938 200.867188 L 299.808594 200.097656 L 299.527344 199.324219 L 299.246094 198.554688 L 298.957031 197.785156 L 298.664062 197.015625 L 298.367188 196.25 L 298.066406 195.480469 L 297.761719 194.714844 L 297.449219 193.953125 L 297.136719 193.1875 L 296.820312 192.425781 L 296.496094 191.664062 L 296.167969 190.902344 L 295.839844 190.144531 L 295.503906 189.386719 L 295.164062 188.628906 L 294.820312 187.875 L 294.472656 187.121094 L 294.121094 186.367188 L 293.765625 185.613281 L 293.039062 184.113281 L 292.671875 183.367188 L 291.921875 181.875 L 291.539062 181.128906 L 291.15625 180.386719 L 290.765625 179.644531 L 290.371094 178.902344 L 289.972656 178.164062 L 289.570312 177.425781 L 289.167969 176.691406 L 288.757812 175.957031 L 288.34375 175.222656 L 287.925781 174.492188 L 287.503906 173.757812 L 287.074219 173.03125 L 286.644531 172.300781 L 286.210938 171.578125 L 285.773438 170.851562 L 285.332031 170.128906 L 284.882812 169.40625 L 284.433594 168.6875 L 283.980469 167.96875 L 283.519531 167.25 L 283.058594 166.535156 L 282.59375 165.820312 L 281.648438 164.398438 L 281.167969 163.6875 L 280.6875 162.980469 L 280.199219 162.277344 L 279.710938 161.570312 L 279.214844 160.867188 L 278.71875 160.167969 L 278.214844 159.46875 L 277.710938 158.773438 L 277.203125 158.074219 L 276.171875 156.691406 L 275.648438 156 L 275.125 155.3125 L 274.597656 154.625 L 273.527344 153.257812 L 272.988281 152.574219 L 272.441406 151.894531 L 271.894531 151.21875 L 271.34375 150.542969 L 270.789062 149.871094 L 270.230469 149.199219 L 269.667969 148.527344 L 269.101562 147.859375 L 268.53125 147.195312 L 267.957031 146.53125 L 267.378906 145.867188 L 266.796875 145.207031 L 265.625 143.894531 L 265.03125 143.238281 L 264.4375 142.585938 L 263.234375 141.289062 L 262.015625 140 L 261.402344 139.359375 L 260.785156 138.71875 L 260.164062 138.082031 L 259.539062 137.445312 L 258.28125 136.179688 L 257.644531 135.550781 L 257.007812 134.925781 L 256.363281 134.300781 L 255.71875 133.679688 L 255.070312 133.058594 L 254.417969 132.441406 L 253.761719 131.824219 L 253.101562 131.210938 L 252.441406 130.601562 L 251.773438 129.992188 L 251.105469 129.386719 L 250.429688 128.78125 L 249.753906 128.179688 L 249.074219 127.578125 L 248.394531 126.980469 L 247.707031 126.386719 L 247.015625 125.792969 L 246.324219 125.203125 L 245.628906 124.617188 L 244.929688 124.03125 L 244.226562 123.449219 L 243.519531 122.867188 L 242.8125 122.289062 L 242.101562 121.710938 L 239.945312 120 "/>
</g>
<g clip-path="url(#clip-2-fc986d9f)">
<path fill="none" stroke-width="50" stroke-linecap="round" stroke-linejoin="miter" stroke="rgb(79.6%, 23.5%, 20%)" stroke-opacity="1" stroke-miterlimit="2" d="M 322.832031 445 L 323.914062 444.148438 L 324.992188 443.289062 L 326.066406 442.429688 L 327.132812 441.566406 L 328.199219 440.699219 L 329.257812 439.828125 L 330.308594 438.953125 L 331.359375 438.074219 L 332.402344 437.195312 L 333.441406 436.308594 L 334.476562 435.417969 L 335.507812 434.527344 L 336.53125 433.632812 L 337.550781 432.730469 L 338.5625 431.828125 L 339.574219 430.921875 L 340.578125 430.011719 L 342.570312 428.183594 L 343.558594 427.261719 L 344.542969 426.339844 L 345.519531 425.414062 L 346.496094 424.480469 L 347.464844 423.546875 L 348.425781 422.613281 L 349.382812 421.671875 L 350.335938 420.730469 L 351.285156 419.78125 L 352.226562 418.832031 L 353.164062 417.878906 L 354.09375 416.921875 L 355.019531 415.964844 L 355.941406 415 L 356.855469 414.035156 L 357.765625 413.066406 L 358.671875 412.09375 L 359.570312 411.121094 L 360.464844 410.140625 L 361.351562 409.160156 L 362.234375 408.175781 L 363.113281 407.1875 L 363.984375 406.199219 L 364.851562 405.207031 L 365.710938 404.210938 L 366.566406 403.210938 L 367.417969 402.207031 L 368.261719 401.203125 L 369.097656 400.195312 L 369.933594 399.183594 L 370.757812 398.171875 L 371.582031 397.15625 L 372.398438 396.136719 L 373.207031 395.113281 L 374.011719 394.089844 L 374.8125 393.0625 L 375.605469 392.03125 L 376.390625 391 L 377.171875 389.964844 L 377.949219 388.925781 L 378.71875 387.886719 L 379.484375 386.84375 L 380.242188 385.796875 L 380.996094 384.746094 L 381.742188 383.695312 L 382.480469 382.644531 L 383.21875 381.585938 L 384.671875 379.46875 L 385.386719 378.402344 L 386.097656 377.335938 L 386.804688 376.269531 L 387.503906 375.199219 L 388.199219 374.125 L 388.886719 373.046875 L 389.566406 371.96875 L 390.242188 370.890625 L 390.914062 369.808594 L 392.234375 367.636719 L 392.886719 366.546875 L 393.53125 365.453125 L 394.804688 363.265625 L 395.429688 362.167969 L 396.050781 361.066406 L 396.667969 359.964844 L 397.878906 357.753906 L 398.472656 356.644531 L 399.0625 355.535156 L 399.648438 354.421875 L 400.226562 353.304688 L 400.796875 352.1875 L 401.363281 351.070312 L 401.921875 349.949219 L 402.476562 348.828125 L 403.023438 347.703125 L 403.5625 346.578125 L 404.097656 345.449219 L 404.625 344.320312 L 405.148438 343.1875 L 405.664062 342.054688 L 406.171875 340.917969 L 406.675781 339.78125 L 407.171875 338.644531 L 407.660156 337.503906 L 408.144531 336.363281 L 408.621094 335.21875 L 409.09375 334.074219 L 409.558594 332.925781 L 410.015625 331.777344 L 410.46875 330.628906 L 410.914062 329.476562 L 411.351562 328.324219 L 411.785156 327.167969 L 412.210938 326.011719 L 412.628906 324.855469 L 413.042969 323.695312 L 413.449219 322.535156 L 413.851562 321.375 L 414.246094 320.210938 L 414.632812 319.046875 L 415.011719 317.882812 L 415.386719 316.714844 L 415.753906 315.546875 L 416.117188 314.378906 L 416.472656 313.207031 L 416.820312 312.035156 L 417.160156 310.863281 L 417.496094 309.6875 L 417.828125 308.511719 L 418.148438 307.335938 L 418.464844 306.160156 L 418.773438 304.980469 L 419.078125 303.800781 L 419.371094 302.621094 L 419.660156 301.4375 L 419.945312 300.253906 L 420.222656 299.070312 L 420.492188 297.886719 L 420.753906 296.703125 L 421.011719 295.515625 L 421.261719 294.328125 L 421.503906 293.140625 L 421.742188 291.953125 L 422.195312 289.570312 L 422.410156 288.378906 L 422.621094 287.1875 L 422.824219 285.996094 L 423.023438 284.800781 L 423.210938 283.609375 L 423.394531 282.414062 L 423.574219 281.21875 L 423.742188 280.023438 L 423.90625 278.824219 L 424.0625 277.628906 L 424.214844 276.429688 L 424.359375 275.234375 L 424.496094 274.035156 L 424.625 272.835938 L 424.75 271.636719 L 424.867188 270.4375 L 424.976562 269.238281 L 425.082031 268.035156 L 425.175781 266.835938 L 425.269531 265.632812 L 425.351562 264.433594 L 425.429688 263.230469 L 425.5 262.027344 L 425.5625 260.828125 L 425.617188 259.625 L 425.667969 258.421875 L 425.710938 257.21875 L 425.75 256.015625 L 425.78125 254.8125 L 425.804688 253.609375 L 425.820312 252.40625 L 425.828125 251.203125 L 425.832031 250 L 425.828125 248.796875 L 425.820312 247.59375 L 425.804688 246.390625 L 425.78125 245.1875 L 425.75 243.984375 L 425.710938 242.78125 L 425.667969 241.578125 L 425.617188 240.375 L 425.5625 239.171875 L 425.5 237.972656 L 425.429688 236.769531 L 425.351562 235.566406 L 425.269531 234.367188 L 425.175781 233.164062 L 425.082031 231.964844 L 424.976562 230.761719 L 424.867188 229.5625 L 424.75 228.363281 L 424.625 227.164062 L 424.496094 225.964844 L 424.359375 224.765625 L 424.214844 223.570312 L 424.0625 222.371094 L 423.90625 221.175781 L 423.742188 219.976562 L 423.574219 218.78125 L 423.394531 217.585938 L 423.210938 216.390625 L 423.023438 215.199219 L 422.824219 214.003906 L 422.621094 212.8125 L 422.410156 211.621094 L 422.195312 210.429688 L 421.742188 208.046875 L 421.503906 206.859375 L 421.261719 205.671875 L 421.011719 204.484375 L 420.753906 203.296875 L 420.492188 202.113281 L 420.222656 200.929688 L 419.945312 199.746094 L 419.660156 198.5625 L 419.371094 197.378906 L 419.078125 196.199219 L 418.773438 195.019531 L 418.464844 193.839844 L 418.148438 192.664062 L 417.828125 191.488281 L 417.496094 190.3125 L 417.160156 189.136719 L 416.820312 187.964844 L 416.472656 186.792969 L 416.117188 185.621094 L 415.753906 184.453125 L 415.386719 183.285156 L 415.011719 182.117188 L 414.632812 180.953125 L 414.246094 179.789062 L 413.851562 178.625 L 413.449219 177.464844 L 413.042969 176.304688 L 412.628906 175.144531 L 412.210938 173.988281 L 411.785156 172.832031 L 411.351562 171.675781 L 410.914062 170.523438 L 410.46875 169.371094 L 410.015625 168.222656 L 409.558594 167.074219 L 409.09375 165.925781 L 408.621094 164.78125 L 408.144531 163.636719 L 407.660156 162.496094 L 407.171875 161.355469 L 406.675781 160.21875 L 406.171875 159.082031 L 405.664062 157.945312 L 405.148438 156.8125 L 404.625 155.679688 L 404.097656 154.550781 L 403.5625 153.421875 L 403.023438 152.296875 L 402.476562 151.171875 L 401.921875 150.050781 L 401.363281 148.929688 L 400.796875 147.8125 L 400.226562 146.695312 L 399.648438 145.578125 L 399.0625 144.464844 L 398.472656 143.355469 L 397.878906 142.246094 L 396.667969 140.035156 L 396.050781 138.933594 L 395.429688 137.832031 L 394.804688 136.734375 L 393.53125 134.546875 L 392.886719 133.453125 L 392.234375 132.363281 L 390.914062 130.191406 L 390.242188 129.109375 L 389.566406 128.03125 L 388.886719 126.953125 L 388.199219 125.875 L 387.503906 124.800781 L 386.804688 123.730469 L 386.097656 122.664062 L 385.386719 121.597656 L 384.671875 120.53125 L 383.21875 118.414062 L 382.480469 117.355469 L 381.742188 116.304688 L 380.996094 115.253906 L 380.242188 114.203125 L 379.484375 113.15625 L 378.71875 112.113281 L 377.949219 111.074219 L 377.171875 110.035156 L 376.390625 109 L 375.605469 107.96875 L 374.8125 106.9375 L 374.011719 105.910156 L 373.207031 104.886719 L 372.398438 103.863281 L 371.582031 102.84375 L 370.757812 101.828125 L 369.933594 100.816406 L 369.097656 99.804688 L 368.261719 98.796875 L 367.417969 97.792969 L 366.566406 96.789062 L 365.710938 95.789062 L 364.851562 94.792969 L 363.984375 93.800781 L 363.113281 92.8125 L 362.234375 91.824219 L 361.351562 90.839844 L 360.464844 89.859375 L 359.570312 88.878906 L 358.671875 87.90625 L 357.765625 86.933594 L 356.855469 85.964844 L 355.941406 85 L 355.019531 84.035156 L 354.09375 83.078125 L 353.164062 82.121094 L 352.226562 81.167969 L 351.285156 80.21875 L 350.335938 79.269531 L 349.382812 78.328125 L 348.425781 77.386719 L 347.464844 76.453125 L 346.496094 75.519531 L 345.519531 74.585938 L 344.542969 73.660156 L 343.558594 72.738281 L 342.570312 71.816406 L 340.578125 69.988281 L 339.574219 69.078125 L 338.5625 68.171875 L 337.550781 67.269531 L 336.53125 66.367188 L 335.507812 65.472656 L 334.476562 64.582031 L 333.441406 63.691406 L 332.402344 62.804688 L 331.359375 61.925781 L 330.308594 61.046875 L 329.257812 60.171875 L 328.199219 59.300781 L 327.132812 58.433594 L 326.066406 57.570312 L 324.992188 56.710938 L 323.914062 55.851562 L 322.832031 55 "/>
</g>
</svg>
